<svg width="26" height="25" viewBox="0 0 26 25" fill="none" xmlns="http://www.w3.org/2000/svg">
<path d="M13 2.34375C7.17603 2.34375 2.4375 6.90002 2.4375 12.5C2.4375 18.1 7.17603 22.6562 13 22.6562C18.824 22.6562 23.5625 18.1 23.5625 12.5C23.5625 6.90002 18.824 2.34375 13 2.34375ZM13 3.90625C17.9448 3.90625 21.9375 7.74536 21.9375 12.5C21.9375 17.2546 17.9448 21.0938 13 21.0938C8.05518 21.0938 4.0625 17.2546 4.0625 12.5C4.0625 7.74536 8.05518 3.90625 13 3.90625ZM12.1875 7.8125V11.7188H8.125V13.2812H12.1875V17.1875H13.8125V13.2812H17.875V11.7188H13.8125V7.8125H12.1875Z" fill="black"/>
</svg>
